# xmcd
#
# Track frame offsets:
#	150
#	25382
#	39234
#	51904
#	64660
#	87408
#	97145
#	115019
#	127730
#	141137
#	151799
#	168832
#	181255
#	191515
#	206362
#
# Disc length: 2924
#
# Revision: 1
# Processed by: cddbd v1.5.1PL0 Copyright (c) Steve Scherf et al.
# Submitted via: WhereIsIt 3.23
# Normalized: r0:DSETVAR1
#
DISCID=be0b6a0f
DTITLE=Various Artist - Blues Story - Vol. 05 - Le Rock 'N' Roll Noir and Le Rhythm 'N' Blues
DYEAR=1900
DGENRE=
TTITLE0=Albert King - Red House
TTITLE1=Bo Diddley - Before You Accuse Me
TTITLE2=Howlin'Wolf - Back Door Man
TTITLE3=Muddy Waters - Got My Mojo Working
TTITLE4=Lucky Peterson - Spankin' Leroy
TTITLE5=Chuck Berry - Worried Life Blues
TTITLE6=Robert Cray - Forecast (Calls For Pain)
TTITLE7=Eddy Clearwater - Poison Ivy
TTITLE8=T. Bone Walker - T. Bone Shuffle
TTITLE9=Little Richard - Tutti Frutti
TTITLE10=Fats Domino - Shake, Rattle and Roll (Live)
TTITLE11=Ike and Tina Turner - Rock Me Baby
TTITLE12=Louis Jordan - Choo-Choo-ch' Boogie
TTITLE13=Lionel Hampton - Hamp's Boogie Woogie
TTITLE14=Doctor Ross - Chicago Breakdown
EXTD=
EXTT0=
EXTT1=
EXTT2=
EXTT3=
EXTT4=
EXTT5=
EXTT6=
EXTT7=
EXTT8=
EXTT9=
EXTT10=
EXTT11=
EXTT12=
EXTT13=
EXTT14=
PLAYORDER=
